<svg width="180" height="180" viewBox="0 0 180 180" fill="none" xmlns="http://www.w3.org/2000/svg">
  <!-- iOS App Icon optimized design -->
  <defs>
    <radialGradient id="bgGradient" cx="0.3" cy="0.3" r="0.8">
      <stop offset="0%" stop-color="#4ade80"/>
      <stop offset="100%" stop-color="#22c55e"/>
    </radialGradient>
    <linearGradient id="leafGradient1" x1="0%" y1="0%" x2="100%" y2="100%">
      <stop offset="0%" stop-color="#4ade80"/>
      <stop offset="50%" stop-color="#22c55e"/>
      <stop offset="100%" stop-color="#16a34a"/>
    </linearGradient>
    <linearGradient id="leafGradient2" x1="100%" y1="0%" x2="0%" y2="100%">
      <stop offset="0%" stop-color="#22c55e"/>
      <stop offset="50%" stop-color="#16a34a"/>
      <stop offset="100%" stop-color="#15803d"/>
    </linearGradient>
  </defs>
  
  <!-- iOS App Icon Background (no rounded corners - iOS adds them) -->
  <rect width="180" height="180" fill="url(#bgGradient)"/>

  <!-- Simplified sprout design for better iOS visibility -->
  <g transform="translate(40, 30)">
    <!-- Main stem -->
    <rect x="48" y="70" width="6" height="50" fill="#15803d" rx="3"/>

    <!-- Left main leaf -->
    <path d="M10 45 C10 35, 20 25, 35 30 C45 40, 55 45, 52 60 C45 70, 25 75, 10 65 Z"
          fill="url(#leafGradient1)"/>

    <!-- Right main leaf -->
    <path d="M90 45 C90 35, 80 25, 65 30 C55 40, 45 45, 48 60 C55 70, 75 75, 90 65 Z"
          fill="url(#leafGradient2)"/>

    <!-- Small leaves on stem -->
    <ellipse cx="40" cy="80" rx="6" ry="3" fill="#4ade80" transform="rotate(-20 40 80)" opacity="0.9"/>
    <ellipse cx="56" cy="90" rx="6" ry="3" fill="#4ade80" transform="rotate(20 56 90)" opacity="0.9"/>

    <!-- Center bud -->
    <circle cx="50" cy="40" r="10" fill="#15803d"/>
    <circle cx="50" cy="40" r="6" fill="#22c55e"/>
    <circle cx="50" cy="40" r="3" fill="#4ade80"/>

    <!-- Highlight -->
    <circle cx="48" cy="38" r="1.5" fill="#ffffff" opacity="0.7"/>
  </g>
</svg>
