<svg width="32" height="32" viewBox="0 0 32 32" fill="none" xmlns="http://www.w3.org/2000/svg">
  <!-- Background circle with gradient -->
  <defs>
    <radialGradient id="bgGradient" cx="0.3" cy="0.3" r="0.8">
      <stop offset="0%" stop-color="#34d399"/>
      <stop offset="100%" stop-color="#22c55e"/>
    </radialGradient>
    <linearGradient id="leafGradient" x1="0%" y1="0%" x2="100%" y2="100%">
      <stop offset="0%" stop-color="#22c55e"/>
      <stop offset="100%" stop-color="#16a34a"/>
    </linearGradient>
  </defs>

  <circle cx="16" cy="16" r="16" fill="url(#bgGradient)"/>

  <!-- Sprout/seedling icon -->
  <g transform="translate(6, 4)">
    <!-- Stem -->
    <rect x="9" y="14" width="2" height="10" fill="#15803d" rx="1"/>

    <!-- Left leaf (larger) -->
    <path d="M3 10 C3 8, 6 6, 10 9 C10 12, 7 14, 3 12 Z" fill="url(#leafGradient)"/>

    <!-- Right leaf (larger) -->
    <path d="M17 10 C17 8, 14 6, 10 9 C10 12, 13 14, 17 12 Z" fill="#16a34a"/>

    <!-- Small leaves on stem -->
    <ellipse cx="8" cy="16" rx="1.5" ry="0.8" fill="#22c55e" transform="rotate(-30 8 16)"/>
    <ellipse cx="12" cy="18" rx="1.5" ry="0.8" fill="#22c55e" transform="rotate(30 12 18)"/>

    <!-- Center bud -->
    <circle cx="10" cy="9" r="1.8" fill="#15803d"/>
    <circle cx="10" cy="9" r="1" fill="#34d399"/>
  </g>
</svg>
